<?xml version="1.0" standalone="no"?>
<!DOCTYPE svg PUBLIC "-//W3C//DTD SVG 20010904//EN"
 "http://www.w3.org/TR/2001/REC-SVG-20010904/DTD/svg10.dtd">
<svg version="1.0" xmlns="http://www.w3.org/2000/svg"
 width="256.000000pt" height="286.000000pt" viewBox="0 0 256.000000 286.000000"
 preserveAspectRatio="xMidYMid meet">
<metadata>
Created by potrace 1.14, written by Peter Selinger 2001-2017
</metadata>
<g transform="translate(0.000000,286.000000) scale(0.100000,-0.100000)"
fill="#000000" stroke="none">
<path d="M520 2474 c-245 -212 -461 -401 -480 -420 l-35 -35 265 7 c146 4 287
4 313 0 46 -7 47 -8 47 -44 1 -123 66 -268 165 -367 115 -116 258 -175 428
-176 96 -1 95 0 72 -64 -31 -87 -11 -191 51 -263 18 -22 34 -43 34 -46 0 -3
-45 -6 -99 -6 -284 0 -507 -83 -672 -249 -190 -193 -208 -418 -46 -580 133
-134 359 -212 657 -228 410 -21 740 155 836 447 21 66 24 218 4 300 -32 142
-102 232 -302 393 -104 84 -178 178 -178 226 0 77 26 113 177 248 145 130 203
247 203 412 0 89 -17 173 -49 246 l-19 42 206 169 c113 93 209 171 214 172 4
2 8 -27 8 -64 0 -56 -4 -72 -22 -91 -20 -22 -23 -39 -30 -186 -5 -89 -7 -319
-6 -510 l3 -349 33 -29 c42 -38 98 -40 139 -5 l28 24 0 510 0 510 -22 31 c-20
26 -23 42 -23 123 l0 93 72 72 72 73 -800 0 -800 0 -444 -386z m852 -12 c170
-85 283 -274 304 -505 11 -133 -35 -276 -116 -357 -62 -62 -93 -75 -190 -75
-112 0 -177 30 -271 126 -119 119 -182 282 -181 464 0 181 71 309 203 369 58
26 174 16 251 -22z m109 -1497 c106 -28 308 -186 357 -280 23 -44 26 -61 25
-140 -1 -123 -27 -191 -102 -266 -101 -100 -236 -143 -456 -144 -80 0 -151 5
-185 14 -283 71 -445 327 -343 543 82 173 295 286 542 287 62 1 127 -5 162
-14z"/>
</g>
</svg>
